<svg xmlns="http://www.w3.org/2000/svg" width="371" height="96" fill="none" viewBox="0 0 371 96"><path fill="url(#a)" d="m19.273 21.66-9.21 4.83c-1.08.57-1.29 2.04-.39 2.91l7.83 7.41z"/><path fill="url(#b)" d="m19.273 21.66-9.21 4.83c-1.08.57-1.29 2.04-.39 2.91l7.83 7.41z"/><path fill="url(#c)" d="M40.603 85.5h-5.16l3.6-18h-4.5l-3.6 18h-5.4c-2.19 0-3.99 1.56-4.41 3.63-.12.45.27.87.72.87h22.41c.48 0 .84-.42.75-.87-.42-2.07-2.22-3.63-4.41-3.63"/><path fill="url(#d)" d="M40.603 85.5h-5.16l3.6-18h-4.5l-3.6 18h-5.4c-2.19 0-3.99 1.56-4.41 3.63-.12.45.27.87.72.87h22.41c.48 0 .84-.42.75-.87-.42-2.07-2.22-3.63-4.41-3.63"/><path fill="url(#e)" d="M40.603 85.5h-5.16l3.6-18h-4.5l-3.6 18h-5.4c-2.19 0-3.99 1.56-4.41 3.63-.12.45.27.87.72.87h22.41c.48 0 .84-.42.75-.87-.42-2.07-2.22-3.63-4.41-3.63"/><path fill="url(#f)" d="M40.603 85.5h-5.16l3.6-18h-4.5l-3.6 18h-5.4c-2.19 0-3.99 1.56-4.41 3.63-.12.45.27.87.72.87h22.41c.48 0 .84-.42.75-.87-.42-2.07-2.22-3.63-4.41-3.63"/><g filter="url(#g)"><path stroke="url(#h)" stroke-opacity=".75" stroke-width=".25" d="M23.593 88.734h14.016"/></g><path fill="url(#i)" d="M55.783 85.5h-5.34l3.6-18h-4.5l-3.6 18h-5.4c-2.19 0-3.99 1.56-4.41 3.63-.12.45.27.87.72.87h22.59c.48 0 .84-.42.75-.87-.42-2.07-2.25-3.63-4.41-3.63"/><path fill="url(#j)" d="M55.783 85.5h-5.34l3.6-18h-4.5l-3.6 18h-5.4c-2.19 0-3.99 1.56-4.41 3.63-.12.45.27.87.72.87h22.59c.48 0 .84-.42.75-.87-.42-2.07-2.25-3.63-4.41-3.63"/><path fill="url(#k)" d="M55.783 85.5h-5.34l3.6-18h-4.5l-3.6 18h-5.4c-2.19 0-3.99 1.56-4.41 3.63-.12.45.27.87.72.87h22.59c.48 0 .84-.42.75-.87-.42-2.07-2.25-3.63-4.41-3.63"/><path fill="url(#l)" d="M55.783 85.5h-5.34l3.6-18h-4.5l-3.6 18h-5.4c-2.19 0-3.99 1.56-4.41 3.63-.12.45.27.87.72.87h22.59c.48 0 .84-.42.75-.87-.42-2.07-2.25-3.63-4.41-3.63"/><g filter="url(#m)"><path stroke="url(#n)" stroke-opacity=".75" stroke-width=".25" d="M38.124 88.734h20.578"/></g><path fill="url(#o)" d="m51.973 75 .42-15.69 34.14-15.9c1.44-.66 3.09.39 3.09 1.95v27.45c0 1.2-.96 2.16-2.16 2.16h-35.49z"/><path fill="url(#p)" d="m51.973 75 .42-15.69 34.14-15.9c1.44-.66 3.09.39 3.09 1.95v27.45c0 1.2-.96 2.16-2.16 2.16h-35.49z"/><path fill="url(#q)" d="m51.973 75 .42-15.69 34.14-15.9c1.44-.66 3.09.39 3.09 1.95v27.45c0 1.2-.96 2.16-2.16 2.16h-35.49z"/><path fill="url(#r)" d="M52.813 18.66c-.39-1.26-.9-2.46-1.56-3.57h1.86c3.87 0 6.99-3.12 6.99-6.99 0-1.14-.96-2.1-2.1-2.1h-22.38c-9.54 0-17.34 7.44-17.97 16.83l-3.87 33.54C12.643 66.3 20.383 75 30.373 75h41.25z"/><path fill="url(#s)" d="M52.813 18.66c-.39-1.26-.9-2.46-1.56-3.57h1.86c3.87 0 6.99-3.12 6.99-6.99 0-1.14-.96-2.1-2.1-2.1h-22.38c-9.54 0-17.34 7.44-17.97 16.83l-3.87 33.54C12.643 66.3 20.383 75 30.373 75h41.25z"/><g filter="url(#t)"><path stroke="url(#u)" stroke-linecap="round" stroke-width=".4" d="M88.093 45.188v26.718"/></g><path fill="url(#v)" d="M72.234 48.047H35.766a2.625 2.625 0 0 0-2.625 2.625v24.656a2.625 2.625 0 0 0 2.625 2.625h36.468a2.625 2.625 0 0 0 2.625-2.625V50.672a2.625 2.625 0 0 0-2.625-2.625"/><path fill="url(#w)" d="M72.234 48.047H35.766a2.625 2.625 0 0 0-2.625 2.625v24.656a2.625 2.625 0 0 0 2.625 2.625h36.468a2.625 2.625 0 0 0 2.625-2.625V50.672a2.625 2.625 0 0 0-2.625-2.625"/><path fill="url(#x)" d="M54 48.047v29.906H35.766a2.625 2.625 0 0 1-2.625-2.625V50.672a2.625 2.625 0 0 1 2.625-2.625z"/><path fill="url(#y)" d="M54 48.047v29.906H35.766a2.625 2.625 0 0 1-2.625-2.625V50.672a2.625 2.625 0 0 1 2.625-2.625z"/><path fill="url(#z)" d="M54 48.047v29.906h18.234a2.625 2.625 0 0 0 2.625-2.625V50.672a2.625 2.625 0 0 0-2.625-2.625z"/><path fill="url(#A)" d="M54 48.047v29.906h18.234a2.625 2.625 0 0 0 2.625-2.625V50.672a2.625 2.625 0 0 0-2.625-2.625z"/><path fill="url(#B)" d="M54 48.047v29.906h18.234a2.625 2.625 0 0 0 2.625-2.625V50.672a2.625 2.625 0 0 0-2.625-2.625z"/><path fill="url(#C)" d="M54 48.047v29.906h18.234a2.625 2.625 0 0 0 2.625-2.625V50.672a2.625 2.625 0 0 0-2.625-2.625z"/><g filter="url(#D)"><path fill="url(#E)" d="M33.14 75.328c0-.394.203-.76.537-.968L53.67 61.863a.6.6 0 0 1 .636 0l20.06 12.573c.307.193.493.53.493.892a2.625 2.625 0 0 1-2.625 2.625H35.766a2.625 2.625 0 0 1-2.625-2.625"/></g><path fill="url(#F)" d="M33.14 75.328c0-.394.203-.76.537-.968L53.67 61.863a.6.6 0 0 1 .636 0l20.06 12.573c.307.193.493.53.493.892a2.625 2.625 0 0 1-2.625 2.625H35.766a2.625 2.625 0 0 1-2.625-2.625"/><path fill="url(#G)" d="M33.14 75.328c0-.394.203-.76.537-.968L53.67 61.863a.6.6 0 0 1 .636 0l20.06 12.573c.307.193.493.53.493.892a2.625 2.625 0 0 1-2.625 2.625H35.766a2.625 2.625 0 0 1-2.625-2.625"/><g filter="url(#H)"><path fill="url(#I)" d="M33.14 50.672c0 .394.203.76.537.968L53.67 64.137a.6.6 0 0 0 .636 0l20.06-12.573c.307-.193.493-.53.493-.892a2.625 2.625 0 0 0-2.625-2.625H35.766a2.625 2.625 0 0 0-2.625 2.625"/><path fill="url(#J)" d="M33.14 50.672c0 .394.203.76.537.968L53.67 64.137a.6.6 0 0 0 .636 0l20.06-12.573c.307-.193.493-.53.493-.892a2.625 2.625 0 0 0-2.625-2.625H35.766a2.625 2.625 0 0 0-2.625 2.625"/><path fill="url(#K)" d="M33.14 50.672c0 .394.203.76.537.968L53.67 64.137a.6.6 0 0 0 .636 0l20.06-12.573c.307-.193.493-.53.493-.892a2.625 2.625 0 0 0-2.625-2.625H35.766a2.625 2.625 0 0 0-2.625 2.625"/><path fill="url(#L)" d="M33.14 50.672c0 .394.203.76.537.968L53.67 64.137a.6.6 0 0 0 .636 0l20.06-12.573c.307-.193.493-.53.493-.892a2.625 2.625 0 0 0-2.625-2.625H35.766a2.625 2.625 0 0 0-2.625 2.625"/></g><path fill="url(#M)" d="M52.813 18.66c-.39-1.26-.9-2.46-1.56-3.57h1.86c3.87 0 6.99-3.12 6.99-6.99 0-1.14-.96-2.1-2.1-2.1h-22.38c-9.54 0-17.34 7.44-17.97 16.83l-3.87 33.54C12.643 66.3 20.383 75 30.373 75h41.25z"/><path fill="url(#N)" d="M52.813 18.66c-.39-1.26-.9-2.46-1.56-3.57h1.86c3.87 0 6.99-3.12 6.99-6.99 0-1.14-.96-2.1-2.1-2.1h-22.38c-9.54 0-17.34 7.44-17.97 16.83l-3.87 33.54C12.643 66.3 20.383 75 30.373 75h41.25z"/><path fill="url(#O)" d="M52.813 18.66c-.39-1.26-.9-2.46-1.56-3.57h1.86c3.87 0 6.99-3.12 6.99-6.99 0-1.14-.96-2.1-2.1-2.1h-22.38c-9.54 0-17.34 7.44-17.97 16.83l-3.87 33.54C12.643 66.3 20.383 75 30.373 75h41.25z"/><path fill="url(#P)" d="M39.643 33v20.79c0 11.73 9.51 21.21 21.21 21.21h10.77l-14.01-42z"/><path fill="url(#Q)" d="M30.113 27.07a1.5 1.5 0 1 0 0-3 1.5 1.5 0 0 0 0 3"/><path fill="url(#R)" d="M30.113 27.07a1.5 1.5 0 1 0 0-3 1.5 1.5 0 0 0 0 3"/><path fill="url(#S)" d="M30.113 27.07a1.5 1.5 0 1 0 0-3 1.5 1.5 0 0 0 0 3"/><g filter="url(#T)"><path fill="url(#U)" d="M43.796 56.301 38.74 18.563h10.681L67.327 68.52a1.5 1.5 0 0 1-1.63 1.99l-9.223-1.36A15 15 0 0 1 43.796 56.3"/></g><g filter="url(#V)"><path stroke="url(#W)" stroke-width=".25" d="M51.202 13.453c1.713.06 5.789-.16 7.08-3.984"/></g><path fill="url(#X)" fill-rule="evenodd" d="M51.253 15.09c.66 1.11 1.17 2.31 1.56 3.57l1.606 4.81-12.838-8.388h11.532l.003.008z" clip-rule="evenodd"/><path fill="#2b2b2b" d="M128.604 73V28.586h9.257V73zm20.976-33.926q-2.402 0-3.926-1.465-1.523-1.494-1.523-3.691 0-2.285 1.523-3.72 1.524-1.437 3.926-1.436 2.432 0 3.926 1.435 1.523 1.436 1.523 3.721t-1.523 3.72q-1.494 1.436-3.926 1.436M154.209 73h-9.258V43h9.258zm37.207-2.49q0 7.734-4.57 12.158-4.542 4.425-12.715 4.424-5.068 0-8.496-1.729a15.5 15.5 0 0 1-5.625-4.716l6.416-4.659q1.406 2.022 3.193 3.135 1.817 1.143 4.658 1.143 3.633 0 5.743-2.168 2.138-2.139 2.138-6.123V69.63h-.117a10.03 10.03 0 0 1-4.014 3.076q-2.373 1.025-5.566 1.025-5.39 0-9.053-3.867-3.662-3.896-3.662-11.015 0-7.94 4.277-12.247 4.278-4.335 10.108-4.335 2.256 0 4.394.879 2.139.878 3.516 2.636h.117V43h9.258zm-9.141-11.924v-2.373q0-2.784-1.787-4.746-1.786-1.992-4.599-1.992-3.165 0-4.951 2.373-1.788 2.373-1.788 6.533 0 3.838 1.67 6.006 1.67 2.138 4.864 2.138 2.724 0 4.658-2.109 1.933-2.11 1.933-5.83M227.363 73h-9.228V55.715q0-3.018-1.26-4.63-1.23-1.61-3.545-1.61-2.462 0-3.984 1.816-1.524 1.816-1.524 4.6V73h-9.258V28.586h9.258V46.75h.117q1.436-1.963 4.043-3.223t5.186-1.26q4.805 0 7.5 3.018t2.695 9.053zm26.866-2.139q-1.377 1.26-3.399 2.08-2.022.792-4.394.791-5.157 0-7.647-2.373t-2.49-7.09V49.826h-4.863V43h4.863v-7.647l9.228-1.64V43h7.207v6.826h-7.207v14.385q0 1.377.586 2.08.615.703 1.699.703.645 0 1.29-.205.674-.234 1.406-.908z"/><path fill="url(#Y)" d="M268.232 70.217h-.117V73h-9.258V28.586h9.258v17.988h.117q1.758-2.168 4.248-3.222 2.491-1.084 5.743-1.084 5.918 0 9.111 3.984t3.193 10.898q0 7.5-3.75 12.041-3.72 4.542-9.931 4.541-2.842 0-5.01-.879a9.14 9.14 0 0 1-3.604-2.636m-.263-13.36v3.077q0 2.841 1.758 4.716 1.757 1.846 4.541 1.846 3.222 0 4.98-2.402 1.787-2.403 1.787-6.826 0-3.663-1.611-5.713-1.611-2.08-4.658-2.08-2.9 0-4.864 2.05-1.933 2.052-1.933 5.332m32.49-17.783q-2.402 0-3.926-1.465-1.523-1.494-1.523-3.691 0-2.285 1.523-3.72 1.524-1.437 3.926-1.436 2.432 0 3.926 1.435 1.523 1.436 1.523 3.721t-1.523 3.72q-1.494 1.436-3.926 1.436M305.088 73h-9.258V43h9.258zm26.543-21.914a12 12 0 0 0-1.904-.469 10 10 0 0 0-1.846-.176q-2.754 0-4.483 2.227-1.728 2.197-1.728 6.006V73h-9.258V43h9.258v5.332h.117q1.084-2.93 3.076-4.395t4.776-1.464q1.083 0 2.05.175a8.8 8.8 0 0 1 1.963.528zm26.191 18.018q-1.611 2.315-3.984 3.486-2.373 1.142-5.537 1.142-5.713 0-9.229-3.955-3.486-3.984-3.486-11.103 0-7.442 3.838-11.924 3.867-4.482 10.605-4.482 2.52 0 4.688 1.142 2.197 1.113 3.105 2.549h.117V28.586h9.258V73h-9.258v-3.897zM344.99 58.41q0 3.897 1.729 6.006 1.728 2.11 4.804 2.11 2.93 0 4.747-2.227 1.845-2.227 1.845-5.889v-2.256q0-2.871-1.758-4.775-1.757-1.904-4.599-1.904-3.193 0-4.981 2.402-1.787 2.373-1.787 6.533"/><defs><linearGradient id="c" x1="36.192" x2="32.579" y1="71.857" y2="91.974" gradientUnits="userSpaceOnUse"><stop stop-color="#d69946"/><stop offset="1" stop-color="#e99d23"/></linearGradient><linearGradient id="d" x1="34.89" x2="33.069" y1="73.406" y2="83.531" gradientUnits="userSpaceOnUse"><stop stop-color="#b87e33"/><stop offset="1" stop-color="#b87e33" stop-opacity="0"/></linearGradient><linearGradient id="f" x1="33.069" x2="33.069" y1="92.156" y2="87.56" gradientUnits="userSpaceOnUse"><stop stop-color="#f15cc7"/><stop offset=".828" stop-color="#f15cc7" stop-opacity="0"/></linearGradient><linearGradient id="h" x1="-nan" x2="-nan" y1="-nan" y2="-nan" gradientUnits="userSpaceOnUse"><stop stop-color="#fdb65d"/><stop offset="1" stop-color="#fdb65d" stop-opacity="0"/></linearGradient><linearGradient id="i" x1="51.305" x2="48.2" y1="71.857" y2="87.711" gradientUnits="userSpaceOnUse"><stop stop-color="#d69946"/><stop offset="1" stop-color="#e99d23"/></linearGradient><linearGradient id="j" x1="49.993" x2="48.185" y1="73.406" y2="83.536" gradientUnits="userSpaceOnUse"><stop stop-color="#b87e33"/><stop offset="1" stop-color="#b87e33" stop-opacity="0"/></linearGradient><linearGradient id="k" x1="48.159" x2="48.159" y1="92.156" y2="87.56" gradientUnits="userSpaceOnUse"><stop stop-color="#f15cc7"/><stop offset=".828" stop-color="#f15cc7" stop-opacity="0"/></linearGradient><linearGradient id="n" x1="-nan" x2="-nan" y1="-nan" y2="-nan" gradientUnits="userSpaceOnUse"><stop stop-color="#fdb65d"/><stop offset="1" stop-color="#fdb65d" stop-opacity="0"/></linearGradient><linearGradient id="o" x1="51.973" x2="85.421" y1="63.411" y2="63.411" gradientUnits="userSpaceOnUse"><stop stop-color="#0d5eb4"/><stop offset="1" stop-color="#1685e7"/></linearGradient><linearGradient id="p" x1="60.947" x2="60.947" y1="83.625" y2="70.5" gradientUnits="userSpaceOnUse"><stop offset=".271" stop-color="#0d5eb4"/><stop offset="1" stop-color="#0d5eb4" stop-opacity="0"/></linearGradient><linearGradient id="q" x1="50.171" x2="59.359" y1="38.813" y2="59.105" gradientUnits="userSpaceOnUse"><stop stop-color="#1685e7"/><stop offset="1" stop-color="#1685e7" stop-opacity="0"/></linearGradient><linearGradient id="r" x1="31.525" x2="31.525" y1="-8.785" y2="88.125" gradientUnits="userSpaceOnUse"><stop stop-color="#1685e7"/><stop offset="1" stop-color="#1477d3"/></linearGradient><linearGradient id="s" x1="27.483" x2="27.483" y1="78.563" y2="53.25" gradientUnits="userSpaceOnUse"><stop stop-color="#0d5eb4"/><stop offset="1" stop-color="#0d5eb4" stop-opacity="0"/></linearGradient><linearGradient id="u" x1="-nan" x2="-nan" y1="-nan" y2="-nan" gradientUnits="userSpaceOnUse"><stop stop-color="#0d5eb4"/><stop offset="1" stop-color="#0d5eb4" stop-opacity="0"/></linearGradient><linearGradient id="v" x1="36.141" x2="74.859" y1="64.734" y2="64.453" gradientUnits="userSpaceOnUse"><stop stop-color="#dfd0e6"/><stop offset="1" stop-color="#eee5f8"/></linearGradient><linearGradient id="w" x1="33.141" x2="37.698" y1="64.642" y2="64.642" gradientUnits="userSpaceOnUse"><stop stop-color="#d6babd"/><stop offset="1" stop-color="#dcc9dd" stop-opacity="0"/></linearGradient><linearGradient id="x" x1="46.256" x2="45.113" y1="67.46" y2="65.679" gradientUnits="userSpaceOnUse"><stop offset=".114" stop-color="#dac3df"/><stop offset="1" stop-color="#dac3df" stop-opacity="0"/></linearGradient><linearGradient id="z" x1="61.641" x2="62.887" y1="67.922" y2="65.679" gradientUnits="userSpaceOnUse"><stop offset=".114" stop-color="#f6effe"/><stop offset="1" stop-color="#f3eafd" stop-opacity="0"/></linearGradient><linearGradient id="A" x1="60.234" x2="61.828" y1="59.906" y2="62.063" gradientUnits="userSpaceOnUse"><stop stop-color="#e3cdf7"/><stop offset="1" stop-color="#e9d9f8" stop-opacity="0"/></linearGradient><linearGradient id="B" x1="75.141" x2="69.563" y1="68.344" y2="68.344" gradientUnits="userSpaceOnUse"><stop stop-color="#f7f3fb"/><stop offset="1" stop-color="#f0e9f8" stop-opacity="0"/></linearGradient><linearGradient id="C" x1="75.141" x2="73.303" y1="68.344" y2="68.344" gradientUnits="userSpaceOnUse"><stop offset=".199" stop-color="#ebe9ed"/><stop offset="1" stop-color="#ebe9ed" stop-opacity="0"/></linearGradient><linearGradient id="E" x1="54" x2="54" y1="80.578" y2="64.359" gradientUnits="userSpaceOnUse"><stop stop-color="#ddc5f1"/><stop offset="1" stop-color="#e6daf1"/></linearGradient><linearGradient id="F" x1="41.229" x2="41.914" y1="69.16" y2="70.186" gradientUnits="userSpaceOnUse"><stop offset=".073" stop-color="#ddc2c8"/><stop offset="1" stop-color="#dfcdda" stop-opacity="0"/></linearGradient><linearGradient id="G" x1="63.871" x2="63.441" y1="67.738" y2="68.409" gradientUnits="userSpaceOnUse"><stop offset=".14" stop-color="#f8f3fd"/><stop offset="1" stop-color="#f1eaf9" stop-opacity="0"/></linearGradient><linearGradient id="I" x1="54" x2="54" y1="48.047" y2="64.228" gradientUnits="userSpaceOnUse"><stop stop-color="#e9e4e9"/><stop offset="1" stop-color="#e7dcf0"/></linearGradient><linearGradient id="J" x1="44.715" x2="50.136" y1="58.317" y2="48.589" gradientUnits="userSpaceOnUse"><stop stop-color="#e1d5e7"/><stop offset="1" stop-color="#e1d5e7" stop-opacity="0"/></linearGradient><linearGradient id="K" x1="33.141" x2="37.538" y1="50.503" y2="50.503" gradientUnits="userSpaceOnUse"><stop stop-color="#e1c1bc"/><stop offset="1" stop-color="#e9d1cd" stop-opacity="0"/></linearGradient><linearGradient id="N" x1="10.983" x2="26.546" y1="47.813" y2="47.813" gradientUnits="userSpaceOnUse"><stop stop-color="#0d5eb4"/><stop offset="1" stop-color="#0d5eb4" stop-opacity="0"/></linearGradient><linearGradient id="P" x1="55.633" x2="43.259" y1="66.375" y2="30.855" gradientUnits="userSpaceOnUse"><stop stop-color="#0d5eb4"/><stop offset="1" stop-color="#1685e7"/></linearGradient><linearGradient id="S" x1="29.818" x2="28.787" y1="24.392" y2="23.736" gradientUnits="userSpaceOnUse"><stop stop-color="#f1f1f1" stop-opacity="0"/><stop offset="1" stop-color="#f1f1f1"/></linearGradient><linearGradient id="U" x1="59.171" x2="47.641" y1="62.625" y2="7.689" gradientUnits="userSpaceOnUse"><stop stop-color="#1685e7"/><stop offset="1" stop-color="#0d5eb4" stop-opacity="0"/></linearGradient><linearGradient id="W" x1="58.282" x2="52.187" y1="11.38" y2="16.16" gradientUnits="userSpaceOnUse"><stop stop-color="#0d5eb4"/><stop offset="1" stop-color="#0d5eb4" stop-opacity="0"/></linearGradient><linearGradient id="X" x1="51.765" x2="49.749" y1="15.082" y2="18.516" gradientUnits="userSpaceOnUse"><stop stop-color="#0d5eb4"/><stop offset="1" stop-color="#0d5eb4" stop-opacity="0"/></linearGradient><linearGradient id="Y" x1="125" x2="371" y1="48" y2="48" gradientUnits="userSpaceOnUse"><stop stop-color="#2493ef"/><stop offset="1" stop-color="#a855f7"/></linearGradient><radialGradient id="a" cx="0" cy="0" r="1" gradientTransform="matrix(21.75 0 0 13.4063 11.171 28.406)" gradientUnits="userSpaceOnUse"><stop stop-color="#edb134"/><stop offset="1" stop-color="#be8244"/></radialGradient><radialGradient id="b" cx="0" cy="0" r="1" gradientTransform="rotate(-11.967 140.572 -42.759)scale(8.81661 6.3483)" gradientUnits="userSpaceOnUse"><stop stop-color="#ffd150"/><stop offset="1" stop-color="#ffd150" stop-opacity="0"/></radialGradient><radialGradient id="e" cx="0" cy="0" r="1" gradientTransform="matrix(-6.46875 0 0 -7.63992 38.546 90)" gradientUnits="userSpaceOnUse"><stop stop-color="#c67500"/><stop offset="1" stop-color="#c67500" stop-opacity="0"/></radialGradient><radialGradient id="l" cx="0" cy="0" r="1" gradientTransform="rotate(187.065 32.838 42.438)scale(6.09771 3.85485)" gradientUnits="userSpaceOnUse"><stop stop-color="#ffbd59"/><stop offset="1" stop-color="#ffbd59" stop-opacity="0"/></radialGradient><radialGradient id="y" cx="0" cy="0" r="1" gradientTransform="rotate(123.69 8.286 42.43)scale(4.08785 28.7093)" gradientUnits="userSpaceOnUse"><stop offset=".342" stop-color="#c8a6d7"/><stop offset="1" stop-color="#d1bbdd" stop-opacity="0"/></radialGradient><radialGradient id="L" cx="0" cy="0" r="1" gradientTransform="rotate(221.767 45.927 13.505)scale(9.19359 40.7369)" gradientUnits="userSpaceOnUse"><stop stop-color="#fbf9fe"/><stop offset="1" stop-color="#f0ecf1" stop-opacity="0"/></radialGradient><radialGradient id="M" cx="0" cy="0" r="1" gradientTransform="rotate(132.87 12.856 41.538)scale(13.815 18.9984)" gradientUnits="userSpaceOnUse"><stop offset=".525" stop-color="#0d5eb4"/><stop offset="1" stop-color="#0d5eb4" stop-opacity="0"/></radialGradient><radialGradient id="O" cx="0" cy="0" r="1" gradientTransform="rotate(235.975 55.74 18.469)scale(82.2351 56.2932)" gradientUnits="userSpaceOnUse"><stop offset=".904" stop-color="#0d5eb4" stop-opacity="0"/><stop offset="1" stop-color="#0d5eb4"/></radialGradient><radialGradient id="Q" cx="0" cy="0" r="1" gradientTransform="rotate(125.838 8.865 20.356)scale(2.08159 1.85582)" gradientUnits="userSpaceOnUse"><stop offset=".006" stop-color="#f1f1f1"/><stop offset="1" stop-color="#fff"/></radialGradient><radialGradient id="R" cx="0" cy="0" r="1" gradientTransform="rotate(137.643 10.456 18.54)scale(1.07838 .94871)" gradientUnits="userSpaceOnUse"><stop stop-color="#f1f1f1"/><stop offset="1" stop-color="#f1f1f1" stop-opacity="0"/></radialGradient><filter id="g" width="14.516" height=".75" x="23.343" y="88.359" color-interpolation-filters="sRGB" filterUnits="userSpaceOnUse"><feFlood flood-opacity="0" result="BackgroundImageFix"/><feBlend in="SourceGraphic" in2="BackgroundImageFix" result="shape"/><feGaussianBlur result="effect1_foregroundBlur_23_61" stdDeviation=".125"/></filter><filter id="m" width="21.078" height=".75" x="37.874" y="88.359" color-interpolation-filters="sRGB" filterUnits="userSpaceOnUse"><feFlood flood-opacity="0" result="BackgroundImageFix"/><feBlend in="SourceGraphic" in2="BackgroundImageFix" result="shape"/><feGaussianBlur result="effect1_foregroundBlur_23_61" stdDeviation=".125"/></filter><filter id="t" width="1.2" height="27.919" x="87.493" y="44.587" color-interpolation-filters="sRGB" filterUnits="userSpaceOnUse"><feFlood flood-opacity="0" result="BackgroundImageFix"/><feBlend in="SourceGraphic" in2="BackgroundImageFix" result="shape"/><feGaussianBlur result="effect1_foregroundBlur_23_61" stdDeviation=".2"/></filter><filter id="D" width="41.719" height="16.931" x="33.141" y="61.022" color-interpolation-filters="sRGB" filterUnits="userSpaceOnUse"><feFlood flood-opacity="0" result="BackgroundImageFix"/><feBlend in="SourceGraphic" in2="BackgroundImageFix" result="shape"/><feColorMatrix in="SourceAlpha" result="hardAlpha" values="0 0 0 0 0 0 0 0 0 0 0 0 0 0 0 0 0 0 127 0"/><feOffset dy="-.75"/><feGaussianBlur stdDeviation=".75"/><feComposite in2="hardAlpha" k2="-1" k3="1" operator="arithmetic"/><feColorMatrix values="0 0 0 0 0.819608 0 0 0 0 0.654902 0 0 0 0 0.933333 0 0 0 1 0"/><feBlend in2="shape" result="effect1_innerShadow_23_61"/></filter><filter id="H" width="41.719" height="16.581" x="33.141" y="47.897" color-interpolation-filters="sRGB" filterUnits="userSpaceOnUse"><feFlood flood-opacity="0" result="BackgroundImageFix"/><feBlend in="SourceGraphic" in2="BackgroundImageFix" result="shape"/><feColorMatrix in="SourceAlpha" result="hardAlpha" values="0 0 0 0 0 0 0 0 0 0 0 0 0 0 0 0 0 0 127 0"/><feOffset dy="-.15"/><feGaussianBlur stdDeviation=".225"/><feComposite in2="hardAlpha" k2="-1" k3="1" operator="arithmetic"/><feColorMatrix values="0 0 0 0 0.827451 0 0 0 0 0.686275 0 0 0 0 0.913725 0 0 0 1 0"/><feBlend in2="shape" result="effect1_innerShadow_23_61"/><feColorMatrix in="SourceAlpha" result="hardAlpha" values="0 0 0 0 0 0 0 0 0 0 0 0 0 0 0 0 0 0 127 0"/><feOffset dy=".25"/><feGaussianBlur stdDeviation=".3"/><feComposite in2="hardAlpha" k2="-1" k3="1" operator="arithmetic"/><feColorMatrix values="0 0 0 0 0.870588 0 0 0 0 0.858824 0 0 0 0 0.854902 0 0 0 1 0"/><feBlend in2="effect1_innerShadow_23_61" result="effect2_innerShadow_23_61"/></filter><filter id="T" width="32.676" height="55.964" x="36.74" y="16.563" color-interpolation-filters="sRGB" filterUnits="userSpaceOnUse"><feFlood flood-opacity="0" result="BackgroundImageFix"/><feBlend in="SourceGraphic" in2="BackgroundImageFix" result="shape"/><feGaussianBlur result="effect1_foregroundBlur_23_61" stdDeviation="1"/></filter><filter id="V" width="8.202" height="5.157" x="50.698" y="8.929" color-interpolation-filters="sRGB" filterUnits="userSpaceOnUse"><feFlood flood-opacity="0" result="BackgroundImageFix"/><feBlend in="SourceGraphic" in2="BackgroundImageFix" result="shape"/><feGaussianBlur result="effect1_foregroundBlur_23_61" stdDeviation=".25"/></filter></defs></svg>